<?xml version="1.0" encoding="utf-8"?>
<svg xmlns="http://www.w3.org/2000/svg">
  <symbol id="ic_angellist" viewBox="0 0 24 24">
    <path d="M17.2296 10.3758C18.1431 10.5164 18.7755 10.938 19.1268 11.5001C19.4782 12.0623 19.689 13.046 19.689 14.3108C19.689 16.8405 18.916 18.9485 17.3701 20.5647C15.8243 22.1808 13.8568 23.024 11.4677 23.024C10.5542 23.024 9.64069 22.8835 8.72721 22.5322C7.81373 22.1808 7.11105 21.689 6.47864 21.1268C5.77596 20.4944 5.21382 19.7215 4.86248 19.0188C4.58141 18.2458 4.37061 17.4729 4.37061 16.6999C4.37061 15.8567 4.58141 15.1541 4.93275 14.6622C5.28409 14.1703 5.9165 13.8892 6.68944 13.6784C6.54891 13.3271 6.40837 13.046 6.3381 12.7649C6.26784 12.5541 6.19757 12.3433 6.19757 12.2028C6.19757 11.7812 6.40837 11.2893 6.90025 10.7974C7.39212 10.3056 7.81373 10.0948 8.23533 10.0948C8.44614 10.0948 8.58667 10.0948 8.79748 10.165C9.00828 10.2353 9.21908 10.3056 9.50015 10.5164C8.86774 8.40834 8.23533 6.65165 7.88399 5.4571C7.53266 4.26255 7.39212 3.4896 7.39212 2.99773C7.39212 2.36532 7.53266 1.87344 7.88399 1.5221C8.16507 1.17076 8.65694 0.959961 9.21908 0.959961C10.1326 0.959961 11.3271 3.06799 12.8027 7.35433C13.0838 8.05701 13.2243 8.61915 13.3649 9.04075C13.5054 8.75968 13.646 8.26781 13.8568 7.70567C15.3324 3.4896 16.5972 1.38157 17.5809 1.38157C18.0728 1.38157 18.4944 1.5221 18.8458 1.87344C19.1268 2.22478 19.3376 2.71666 19.3376 3.2788C19.3376 3.7004 19.1971 4.54362 18.8458 5.73817C18.4242 6.93272 17.9323 8.47861 17.2296 10.3758ZM6.40837 16.5594C6.54891 16.6999 6.75971 16.981 6.97051 17.3324C7.60292 18.2458 8.23533 18.7377 8.79748 18.7377C9.00828 18.7377 9.14881 18.6674 9.28935 18.5269C9.42989 18.3864 9.50015 18.2458 9.50015 18.1756C9.50015 18.035 9.42988 17.754 9.21908 17.4026C9.00828 17.0513 8.72721 16.6297 8.37587 16.2081C7.95426 15.7162 7.60292 15.2946 7.39212 15.0838C7.11105 14.873 6.90025 14.7324 6.75971 14.7324C6.40837 14.7324 6.05703 14.9432 5.77596 15.2946C5.49489 15.6459 5.35435 16.1378 5.35435 16.6297C5.35435 17.0513 5.42462 17.4729 5.63543 18.035C5.84623 18.5269 6.1273 19.089 6.54891 19.5809C7.18132 20.2836 7.88399 20.916 8.79748 21.3376C9.71096 21.7592 10.6244 21.97 11.7487 21.97C13.7162 21.97 15.3324 21.2673 16.6675 19.7917C18.0026 18.3161 18.635 16.4891 18.635 14.2406C18.635 13.5379 18.5647 13.046 18.4944 12.6244C18.4242 12.2028 18.2134 11.9217 18.0026 11.7812C17.5809 11.4299 16.808 11.1488 15.6134 10.8677C14.4189 10.5866 13.1541 10.4461 11.8893 10.4461C11.5379 10.4461 11.2568 10.5164 11.1163 10.6569C10.9758 10.7974 10.9055 11.0083 10.9055 11.2893C10.9055 11.992 11.2568 12.4839 12.0298 12.7649C12.8027 13.046 14.0676 13.2568 15.754 13.2568H16.3864C16.5269 13.2568 16.6675 13.3271 16.7377 13.3974C16.808 13.5379 16.8783 13.6784 16.8783 13.8892C16.7377 14.0298 16.3864 14.2406 15.8243 14.4514C15.2621 14.6622 14.9108 14.873 14.6297 15.0838C13.9973 15.5054 13.5054 16.0675 13.1541 16.6999C12.8027 17.3324 12.5919 17.8945 12.5919 18.4566C12.5919 18.808 12.6622 19.1593 12.8027 19.6512C12.9433 20.1431 13.0135 20.4241 13.0135 20.4944V20.6349V20.7755C12.5919 20.7755 12.2406 20.4944 11.9595 20.0025C11.6785 19.5107 11.6082 18.8782 11.6082 18.035V17.8945C11.5379 17.9648 11.4677 18.035 11.3974 18.035C11.3271 18.035 11.2568 18.1053 11.1163 18.1053H10.8352C10.765 18.1053 10.6947 18.035 10.5542 18.035C10.5542 18.1756 10.6244 18.2458 10.6244 18.3864V18.6674C10.6244 19.0188 10.4839 19.3701 10.2028 19.6512C9.92176 19.9323 9.57042 20.0728 9.14881 20.0728C8.5164 20.0728 7.88399 19.7917 7.18132 19.1593C6.54891 18.5269 6.19757 17.9648 6.19757 17.3324C6.19757 17.1918 6.19757 17.1215 6.26784 17.0513C6.26784 16.6999 6.3381 16.6297 6.40837 16.5594ZM10.9758 16.9107C11.1163 16.9107 11.3271 16.8405 11.4677 16.6999C11.6082 16.5594 11.6785 16.3486 11.6785 16.2081C11.6785 15.9973 11.5379 15.5757 11.2568 14.873C10.9758 14.1703 10.6244 13.4676 10.2028 12.8352C9.92176 12.3433 9.57042 11.9217 9.28935 11.7109C9.00828 11.4299 8.72721 11.3596 8.44614 11.3596C8.23533 11.3596 8.02453 11.5001 7.74346 11.7812C7.46239 12.0623 7.39212 12.2731 7.39212 12.5541C7.39212 12.7649 7.53266 13.1866 7.74346 13.6784C8.02453 14.1703 8.3056 14.6622 8.72721 15.2243C9.14881 15.7865 9.57042 16.2783 9.99203 16.6297C10.4136 16.7702 10.6947 16.9107 10.9758 16.9107ZM12.4514 9.6029L10.765 4.89496C10.3434 3.7004 10.0623 2.85719 9.78122 2.50585C9.57042 2.15451 9.35962 1.94371 9.07855 1.94371C8.86774 1.94371 8.72721 2.01398 8.58667 2.15451C8.37587 2.36532 8.3056 2.57612 8.3056 2.85719C8.3056 3.34907 8.5164 4.12201 8.86774 5.24629C9.21908 6.37058 9.78122 7.91647 10.4839 9.74343C10.5542 9.6029 10.6244 9.53263 10.765 9.53263C10.9055 9.46236 11.046 9.46236 11.1866 9.46236H11.5379C11.7487 9.53263 12.0298 9.53263 12.4514 9.6029ZM14.1378 14.1703C13.7162 14.1703 13.2946 14.1 12.873 14.0298C12.4514 13.9595 12.1001 13.8892 11.7487 13.7487C11.8893 14.1 12.0298 14.3811 12.1703 14.7324C12.3109 15.0838 12.3811 15.3649 12.4514 15.7162C12.6622 15.4351 12.9433 15.1541 13.2243 14.873C13.5757 14.5919 13.8568 14.3811 14.1378 14.1703ZM16.1756 10.0948C16.8783 8.26781 17.3701 6.72192 17.7918 5.52737C18.1431 4.33281 18.3539 3.63014 18.3539 3.34907C18.3539 3.06799 18.2836 2.85719 18.1431 2.64639C18.0026 2.50585 17.862 2.43558 17.6512 2.43558C17.3701 2.43558 17.0891 2.64639 16.808 3.13826C16.5269 3.63014 16.1756 4.33281 15.8243 5.38683L14.2784 9.74343L16.1756 10.0948Z" fill="white" />

  </symbol>
  <symbol id="ic_download" viewBox="0 0 26 25">
    <path d="M1 6V24H25V6" stroke="white" stroke-width="2" />
    <path d="M13.6623 13.9624L17.9103 9.71441L19.3245 11.1286L12.6622 17.7909L6 11.1286L7.41421 9.71441L11.6623 13.9625V2.52881e-07L13.6623 0V13.9624Z" fill="white" />

  </symbol>
  <symbol id="ic_framework" viewBox="0 0 96 96">
    <mask id="mask0_67_1126" style="mask-type:alpha" maskUnits="userSpaceOnUse" x="0" y="0" width="96" height="96">
      <path d="M0 0H96V96H0V0Z" fill="#C4C4C4" />
    </mask>
    <g mask="url(#mask0_67_1126)">
      <g opacity="0.5">
        <rect x="4.62451" y="3.94043" width="102.221" height="102.221" transform="rotate(0.534808 4.62451 3.94043)" stroke="white" stroke-width="6" stroke-linejoin="round" />
        <rect x="55.7334" y="4.41772" width="72.2814" height="72.2814" transform="rotate(45.5348 55.7334 4.41772)" stroke="white" stroke-width="6" stroke-linejoin="bevel" />
      </g>
    </g>

  </symbol>
  <symbol id="ic_github" viewBox="0 0 24 24">
    <g clip-path="url(#clip0_67_1250)">
      <path d="M12 0.5C5.37 0.5 0 5.78 0 12.292C0 17.503 3.438 21.922 8.205 23.48C8.805 23.591 9.025 23.226 9.025 22.913C9.025 22.633 9.015 21.891 9.01 20.908C5.672 21.619 4.968 19.326 4.968 19.326C4.422 17.965 3.633 17.601 3.633 17.601C2.546 16.87 3.717 16.885 3.717 16.885C4.922 16.967 5.555 18.1 5.555 18.1C6.625 19.903 8.364 19.382 9.05 19.081C9.158 18.318 9.467 17.799 9.81 17.504C7.145 17.209 4.344 16.195 4.344 11.677C4.344 10.39 4.809 9.338 5.579 8.513C5.444 8.215 5.039 7.016 5.684 5.392C5.684 5.392 6.689 5.076 8.984 6.601C9.944 6.339 10.964 6.209 11.984 6.203C13.004 6.209 14.024 6.339 14.984 6.601C17.264 5.076 18.269 5.392 18.269 5.392C18.914 7.016 18.509 8.215 18.389 8.513C19.154 9.338 19.619 10.39 19.619 11.677C19.619 16.207 16.814 17.204 14.144 17.494C14.564 17.848 14.954 18.571 14.954 19.676C14.954 21.254 14.939 22.522 14.939 22.905C14.939 23.214 15.149 23.583 15.764 23.465C20.565 21.917 24 17.495 24 12.292C24 5.78 18.627 0.5 12 0.5V0.5Z" fill="white" />
    </g>
    <defs>
      <clipPath id="clip0_67_1250">
        <rect width="24" height="24" fill="white" />
      </clipPath>
    </defs>

  </symbol>
  <symbol id="ic_languages_mob" viewBox="0 0 102 102">
    <path d="M79.349 39.4216L74.1434 63.2676H93.2278C93.8767 63.2676 94.4028 63.7936 94.4028 64.4426V70.9142C94.4028 71.5631 93.8767 72.0892 93.2278 72.0892H72.1738L65.9025 101.073C65.7856 101.614 65.3073 102 64.7541 102H57.7323C56.9833 102 56.4255 101.309 56.5839 100.577L62.7476 72.0892H31.3738L25.1025 101.073C24.9856 101.614 24.5073 102 23.9541 102H17.073C16.324 102 15.7662 101.309 15.9245 100.577L22.0883 72.0892H1.175C0.526066 72.0892 0 71.5631 0 70.9142V64.4426C0 63.7936 0.526065 63.2676 1.175 63.2676H24.0579L29.2634 39.4216H8.77224C8.12331 39.4216 7.59724 38.8956 7.59724 38.2466V31.775C7.59724 31.1261 8.12331 30.6 8.77224 30.6H31.2331L37.6452 0.926821C37.7621 0.386008 38.2404 0 38.7937 0H45.675C46.4239 0 46.9817 0.691188 46.8235 1.42318L40.5186 30.6H71.8924L78.3045 0.926821C78.4214 0.386008 78.8997 0 79.453 0H86.475C87.2239 0 87.7817 0.691188 87.6235 1.42318L81.3186 30.6H100.825C101.474 30.6 102 31.1261 102 31.775V38.2466C102 38.8956 101.474 39.4216 100.825 39.4216H79.349ZM69.9228 39.4216H38.549L33.3434 63.2676H64.7172L69.9228 39.4216Z" fill="#547DA7" />

  </symbol>
  <symbol id="ic_linkedin" viewBox="0 0 24 24">
    <path d="M22.2691 0H1.7309C0.774902 0 0 0.774902 0 1.7309V22.2691C0 23.2251 0.774902 24 1.7309 24H22.2691C23.2251 24 24 23.2251 24 22.2691V1.7309C24 0.774902 23.2251 0 22.2691 0V0ZM8.51294 18.1406H5.59039V9.34808H8.51294V18.1406ZM7.05176 8.14746H7.03271C6.052 8.14746 5.41772 7.47235 5.41772 6.6286C5.41772 5.76581 6.07141 5.10938 7.07117 5.10938C8.07092 5.10938 8.68616 5.76581 8.7052 6.6286C8.7052 7.47235 8.07092 8.14746 7.05176 8.14746ZM19.051 18.1406H16.1288V13.4368C16.1288 12.2547 15.7057 11.4485 14.6483 11.4485C13.8409 11.4485 13.3601 11.9923 13.1488 12.5173C13.0715 12.7051 13.0527 12.9677 13.0527 13.2305V18.1406H10.1303C10.1303 18.1406 10.1686 10.173 10.1303 9.34808H13.0527V10.593C13.441 9.9939 14.1359 9.14172 15.6865 9.14172C17.6093 9.14172 19.051 10.3984 19.051 13.099V18.1406Z" fill="white" />

  </symbol>
  <symbol id="ic_medium" viewBox="0 0 24 24">
    <g clip-path="url(#clip0_67_1261)">
      <path d="M22.085 4.733L24 2.901V2.5H17.366L12.638 14.268L7.259 2.5H0.303V2.901L2.54 5.594C2.758 5.793 2.872 6.084 2.843 6.377V16.96C2.912 17.341 2.788 17.733 2.52 18.01L0 21.064V21.46H7.145V21.059L4.625 18.01C4.352 17.732 4.223 17.347 4.278 16.96V7.806L10.55 21.465H11.279L16.672 7.806V18.687C16.672 18.974 16.672 19.033 16.484 19.221L14.544 21.098V21.5H23.956V21.099L22.086 19.268C21.922 19.144 21.837 18.936 21.872 18.734V5.267C21.837 5.064 21.921 4.856 22.085 4.733V4.733Z" fill="white" />
    </g>
    <defs>
      <clipPath id="clip0_67_1261">
        <rect width="24" height="24" fill="white" />
      </clipPath>
    </defs>

  </symbol>
  <symbol id="ic_skills" viewBox="0 0 102 102">
    <g opacity="0.5" clip-path="url(#clip0_67_1137)">
      <path d="M50.9971 11.9506C49.3467 11.9506 48.0088 13.2885 48.0088 14.9388C48.0088 16.5892 49.3467 17.9271 50.9971 17.9271C60.8851 17.9271 68.9297 25.9704 68.9297 35.8568C68.9297 37.5071 70.2677 38.8451 71.918 38.8451C73.5684 38.8451 74.9063 37.5071 74.9063 35.8568C74.9063 22.6749 64.1808 11.9506 50.9971 11.9506Z" fill="white" />
      <path d="M43.2977 0.802206C29.7967 3.62334 18.8496 14.4656 15.9691 28.0505C13.5368 39.522 16.5341 51.0388 24.1923 59.648C27.9358 63.8561 30.0826 69.4109 30.0826 74.9036V80.8802C30.0826 84.8566 32.6857 88.2347 36.2769 89.4047C37.4578 96.3824 43.5141 101.997 51.0005 101.997C58.485 101.997 64.5428 96.3842 65.7242 89.4047C69.3153 88.2347 71.9185 84.8566 71.9185 80.88V74.9034C71.9185 69.4 74.0724 63.9119 77.9831 59.4502C83.7075 52.9198 86.8599 44.5407 86.8599 35.8567C86.8599 13.2325 66.1513 -3.97227 43.2977 0.802206ZM51.0005 96.0208C47.1592 96.0208 43.7912 93.3776 42.5475 89.8251H59.4534C58.2099 93.3776 54.8419 96.0208 51.0005 96.0208ZM65.9419 80.8802C65.9419 82.5279 64.6014 83.8684 62.9537 83.8684H39.0474C37.3997 83.8684 36.0591 82.5279 36.0591 80.8802V77.8919H65.9419V80.8802ZM73.4887 55.5111C69.3211 60.2658 66.7569 65.9993 66.1063 71.9153H35.8954C35.2455 65.9961 32.6879 60.2062 28.6581 55.6758C22.2756 48.5008 19.7816 38.8835 21.8158 29.2903C24.1903 18.0914 33.3145 8.99408 44.5203 6.65266C63.6501 2.65494 80.8833 17.021 80.8833 35.8567C80.8833 43.0908 78.2572 50.0708 73.4887 55.5111Z" fill="white" />
      <path d="M8.96484 35.8568H2.98828C1.33795 35.8568 0 37.1948 0 38.8451C0 40.4954 1.33795 41.8334 2.98828 41.8334H8.96484C10.6152 41.8334 11.9531 40.4954 11.9531 38.8451C11.9531 37.1948 10.6152 35.8568 8.96484 35.8568Z" fill="white" />
      <path d="M10.2023 20.916L5.97629 16.69C4.80947 15.5229 2.91729 15.5229 1.75027 16.69C0.583244 17.857 0.583244 19.749 1.75027 20.916L5.97629 25.142C7.14312 26.309 9.0353 26.3092 10.2023 25.142C11.3693 23.975 11.3693 22.083 10.2023 20.916Z" fill="white" />
      <path d="M10.2023 52.5493C9.0353 51.3823 7.14312 51.3823 5.97629 52.5493L1.75027 56.7754C0.583244 57.9424 0.583244 59.8344 1.75027 61.0014C2.91709 62.1684 4.80927 62.1686 5.97629 61.0014L10.2023 56.7754C11.3693 55.6083 11.3693 53.7164 10.2023 52.5493Z" fill="white" />
      <path d="M99.0117 35.8568H93.0352C91.3848 35.8568 90.0469 37.1948 90.0469 38.8451C90.0469 40.4954 91.3848 41.8334 93.0352 41.8334H99.0117C100.662 41.8334 102 40.4954 102 38.8451C102 37.1948 100.662 35.8568 99.0117 35.8568Z" fill="white" />
      <path d="M100.249 16.69C99.0824 15.5229 97.1902 15.5229 96.0232 16.69L91.7971 20.916C90.6301 22.083 90.6301 23.975 91.7971 25.142C92.964 26.3088 94.8561 26.309 96.0232 25.142L100.249 20.916C101.416 19.749 101.416 17.857 100.249 16.69Z" fill="white" />
      <path d="M100.249 56.7754L96.0232 52.5493C94.8563 51.3823 92.9642 51.3823 91.7971 52.5493C90.6301 53.7164 90.6301 55.6083 91.7971 56.7754L96.0232 61.0014C97.19 62.1682 99.0822 62.1684 100.249 61.0014C101.416 59.8344 101.416 57.9424 100.249 56.7754Z" fill="white" />
    </g>
    <defs>
      <clipPath id="clip0_67_1137">
        <rect width="102" height="102" fill="white" />
      </clipPath>
    </defs>

  </symbol>
  <symbol id="ic_stackoverflow" viewBox="0 0 24 24">
    <path d="M17.249 15C16.835 15 16.499 15.336 16.499 15.75V22.5H4.49902V15.75C4.49902 15.336 4.16302 15 3.74902 15C3.33502 15 2.99902 15.336 2.99902 15.75V23.25C2.99902 23.664 3.33502 24 3.74902 24H17.249C17.663 24 17.999 23.664 17.999 23.25V15.75C17.999 15.336 17.663 15 17.249 15Z" fill="white" />
    <path d="M14.249 19.5H6.74902C6.33502 19.5 5.99902 19.836 5.99902 20.25C5.99902 20.664 6.33502 21 6.74902 21H14.249C14.663 21 14.999 20.664 14.999 20.25C14.999 19.836 14.663 19.5 14.249 19.5Z" fill="white" />
    <path d="M14.3227 16.5046L6.82269 15.7546C6.4042 15.7141 6.0442 16.0141 6.0022 16.4251C5.9617 16.8376 6.2617 17.2051 6.67419 17.2456L14.1742 17.9956C14.1997 17.9986 14.2252 18.0001 14.2507 18.0001C14.6302 18.0001 14.9572 17.7121 14.9932 17.3251C15.0367 16.9126 14.7337 16.5451 14.3227 16.5046Z" fill="white" />
    <path d="M15.2151 13.5317L7.71513 11.2817C7.31463 11.1617 6.89913 11.3882 6.78063 11.7842C6.66213 12.1817 6.88713 12.5987 7.28313 12.7187L14.7831 14.9687C14.8551 14.9897 14.9271 15.0002 14.9991 15.0002C15.3216 15.0002 15.6201 14.7902 15.7176 14.4647C15.8376 14.0672 15.6126 13.6502 15.2151 13.5317Z" fill="white" />
    <path d="M16.1139 10.5945L9.36393 6.84453C9.00243 6.64053 8.54493 6.77403 8.34393 7.13553C8.14143 7.49853 8.27193 7.95452 8.63493 8.15552L15.3849 11.9055C15.5004 11.97 15.6249 12 15.7494 12C16.0119 12 16.2684 11.8605 16.4049 11.6145C16.6059 11.2515 16.4754 10.7955 16.1139 10.5945Z" fill="white" />
    <path d="M17.8853 9.35246L14.1353 3.35249C13.9163 2.99999 13.4528 2.89649 13.1018 3.11399C12.7508 3.33299 12.6443 3.79649 12.8633 4.14748L16.6133 10.1475C16.7558 10.3755 17.0003 10.5 17.2493 10.5C17.3858 10.5 17.5238 10.464 17.6468 10.386C17.9978 10.167 18.1043 9.70346 17.8853 9.35246Z" fill="white" />
    <path d="M20.9856 8.10306L19.4856 0.603093C19.4031 0.196595 18.9921 -0.0674039 18.6036 0.0150957C18.1956 0.0960954 17.9316 0.490594 18.0141 0.897092L19.5141 8.39706C19.5861 8.75406 19.8981 9.00006 20.2476 9.00006C20.2971 9.00006 20.3466 8.99556 20.3961 8.98506C20.8041 8.90406 21.0681 8.50956 20.9856 8.10306Z" fill="white" />

  </symbol>
  <symbol id="ic_twitter" viewBox="0 0 24 24">
    <g clip-path="url(#clip0_67_1253)">
      <path d="M24 4.5585C23.1075 4.95 22.1565 5.2095 21.165 5.3355C22.185 4.7265 22.9635 3.7695 23.3295 2.616C22.3785 3.183 21.3285 3.5835 20.2095 3.807C19.3065 2.8455 18.0195 2.25 16.6155 2.25C13.8915 2.25 11.6985 4.461 11.6985 7.1715C11.6985 7.5615 11.7315 7.9365 11.8125 8.2935C7.722 8.094 4.1025 6.1335 1.671 3.147C1.2465 3.8835 0.9975 4.7265 0.9975 5.634C0.9975 7.338 1.875 8.8485 3.183 9.723C2.3925 9.708 1.617 9.4785 0.96 9.117C0.96 9.132 0.96 9.1515 0.96 9.171C0.96 11.562 2.6655 13.548 4.902 14.0055C4.5015 14.115 4.065 14.1675 3.612 14.1675C3.297 14.1675 2.979 14.1495 2.6805 14.0835C3.318 16.032 5.127 17.4645 7.278 17.511C5.604 18.8205 3.4785 19.6095 1.1775 19.6095C0.774 19.6095 0.387 19.5915 0 19.542C2.1795 20.9475 4.7625 21.75 7.548 21.75C16.602 21.75 21.552 14.25 21.552 7.749C21.552 7.5315 21.5445 7.3215 21.534 7.113C22.5105 6.42 23.331 5.5545 24 4.5585Z" fill="white" />
    </g>
    <defs>
      <clipPath id="clip0_67_1253">
        <rect width="24" height="24" fill="white" />
      </clipPath>
    </defs>

  </symbol>
  <symbol id="union" viewBox="0 0 23 23">
    <path fill-rule="evenodd" clip-rule="evenodd" d="M12.5803 2H18.5879L8.71501 11.8729L10.1292 13.2871L20.0022 3.41417V9.42183H22.0022V1V0H21.0022H12.5803V2ZM1 3.15813H5.21128V5.15813H2V20.0018H16.8437V16.7911H18.8437V21.0018V22.0018H17.8437H1H0V21.0018V4.15813V3.15813H1Z" fill="#92DCDC" />

  </symbol>
</svg>